{"title":"Hillsong - No Other Name 2014 BluRay 1080p DTS x264","uid":11202514,"size":8843711397,"categoryP":"video","categoryS":"music_videos","magnet":"?xt=urn:btih:b2c8dde25a7f591b99382d6d2800e7a23378ed3e&amp;dn=Hillsong+-+No+Other+Name+2014+BluRay+1080p+DTS+x264&amp;tr=udp%3A%2F%2Ftracker.openbittorrent.com%3A80&amp;tr=udp%3A%2F%2Fopen.demonii.com%3A1337&amp;tr=udp%3A%2F%2Ftracker.coppersurfer.tk%3A6969&amp;tr=udp%3A%2F%2Fexodus.desync.com%3A6969","seeders":5,"leechers":1,"uploader":"fmatiasii","files":1,"time":1413191230,"description":"Live from Hillsong Conference\n\nNO OTHER NAME features the songwriting, worship leadership, musicianship and vocals of those now well-known as the Hillsong Worship team, including Reuben Morgan, Ben Fielding, Matt Crocker, Joel Houston, Nigel Hendroff, Autumn Hardmann, Annie Garrett, Jad Gillies, David Ware, and Taya Smith. \n\nWith cover art that shows the iconic billboards of New York City's Times Square proclaiming NO OTHER NAME, this album is a bold statement about the Name of Jesus. More than just songs, our prayer is that the album would give voice to individuals and churches across the earth, unifying them in a declaration of worship that is lifted to and for no other name but Jesus.\n\nTRACK LISTING \n 1. No Other Name (Opener)\n 2. Heaven And Earth\n 3. Broken Vessels (Amazing Grace)\n 4. No Other Name\n 5. My Story \n 6. Thank You Jesus\n 7. Calvary\n 8. This I Believe (Opener)\n 9. This I Believe (The Creed)\n10. All Things New\n11. Our Father\n12. Depths\n13. Mountain\n\nMEDIA INFO:\nFormat                                   : Matroska\nFormat version                           : Version 2\nFile size                                : 8.24 GiB\nDuration                                 : 1h 13mn\nOverall bit rate                         : 16.0 Mbps\nWriting application                      : HandBrake 0.9.9\nWriting library                          : libmkv 0.6.5\n\nVideo\nID                                       : 1\nFormat                                   : AVC\nFormat/Info                              : Advanced Video Codec\nFormat profile                           : &lt;a class=&quot;__cf_email__&quot; href=&quot;/cdn-cgi/l/email-protection&quot; data-cfemail=&quot;7c311d15123c3048524c&quot;&gt;[email&amp;#160;protected]&lt;/a&gt;&lt;script cf-hash='f9e31' type=&quot;text/javascript&quot;&gt;\n/* &lt;![CDATA[ */!function(){try{var t=&quot;currentScript&quot;in document?document.currentScript:function(){for(var t=document.getElementsByTagName(&quot;script&quot;),e=t.length;e--;)if(t[e].getAttribute(&quot;cf-hash&quot;))return t[e]}();if(t&amp;&amp;t.previousSibling){var e,r,n,i,c=t.previousSibling,a=c.getAttribute(&quot;data-cfemail&quot;);if(a){for(e=&quot;&quot;,r=parseInt(a.substr(0,2),16),n=2;a.length-n;n+=2)i=parseInt(a.substr(n,2),16)^r,e+=String.fromCharCode(i);e=document.createTextNode(e),c.parentNode.replaceChild(e,c)}}}catch(u){}}();/* ]]&gt; */&lt;/script&gt;\nFormat settings, CABAC                   : Yes\nFormat settings, ReFrames                : 4 frames\nCodec ID                                 : V_MPEG4/ISO/AVC\nDuration                                 : 1h 13mn\nBit rate                                 : 14.2 Mbps\nWidth                                    : 1 920 pixels\nHeight                                   : 800 pixels\nDisplay aspect ratio                     : 2.40:1\nFrame rate mode                          : Constant\nFrame rate                               : 29.970 fps\nColor space                              : YUV\nChroma subsampling                       : 4:2:0\nBit depth                                : 8 bits\nScan type                                : Progressive\nBits/(Pixel*Frame)                       : 0.308\nStream size                              : 7.30 GiB (89%)\nWriting library                          : x264 core 130 r2273 b3065e6\nEncoding settings                        : cabac=1 / ref=1 / deblock=1:-1:-1 / analyse=0x1:0x111 / me=hex / subme=2 / psy=1 / psy_rd=1.00:0.15 / mixed_ref=0 / me_range=16 / chroma_me=1 / trellis=0 / 8x8dct=0 / cqm=0 / deadzone=21,11 / fast_pskip=1 / chroma_qp_offset=0 / threads=18 / lookahead_threads=6 / sliced_threads=0 / nr=0 / decimate=1 / interlaced=0 / bluray_compat=0 / constrained_intra=0 / bframes=3 / b_pyramid=2 / b_adapt=1 / b_bias=0 / direct=1 / weightb=1 / open_gop=0 / weightp=1 / keyint=300 / keyint_min=30 / scenecut=40 / intra_refresh=0 / rc_lookahead=10 / rc=crf / mbtree=1 / crf=15.0 / qcomp=0.60 / qpmin=0 / qpmax=69 / qpstep=4 / ip_ratio=1.40 / aq=1:1.00\n\nLanguage                                 : English\nDefault                                  : Yes\nForced                                   : No\nColor primaries                          : BT.709\nTransfer characteristics                 : BT.709\nMatrix coefficients                      : BT.709\n\nAudio\nID                                       : 2\nFormat                                   : DTS\nFormat/Info                              : Digital Theater Systems\nMode                                     : 16\nFormat settings, Endianness              : Big\nCodec ID                                 : A_DTS\nDuration                                 : 1h 13mn\nBit rate mode                            : Constant\nBit rate                                 : 1 509 Kbps\nChannel(s)                               : 6 channels\nChannel positions                        : Front: L C R, Side: L R, LFE\nSampling rate                            : 48.0 KHz\nBit depth                                : 24 bits\nCompression mode                         : Lossy\nStream size                              : 794 MiB (9%)\nLanguage                                 : English\nDefault                                  : Yes\nForced                                   : No\n\nText\nID                                       : 3\nFormat                                   : UTF-8\nCodec ID                                 : S_TEXT/UTF8\nCodec ID/Info                            : UTF-8 Plain Text\nLanguage                                 : English\nDefault                                  : No\nForced                                   : No\n\nMenu\n00:00:00.000                             : Chapter 1\n00:05:55.388                             : Chapter 2\n00:10:51.784                             : Chapter 3\n00:18:33.345                             : Chapter 4\n00:25:35.300                             : Chapter 5\n00:29:54.392                             : Chapter 6\n00:36:18.943                             : Chapter 7\n00:40:40.971                             : Chapter 8\n00:44:34.204                             : Chapter 9\n00:51:07.731                             : Chapter 10\n00:56:14.804                             : Chapter 11\n01:01:02.425                             : Chapter 12\n01:05:37.967                             : Chapter 13","torrent":{"xt":"urn:btih:b2c8dde25a7f591b99382d6d2800e7a23378ed3e","amp;dn":"Hillsong+-+No+Other+Name+2014+BluRay+1080p+DTS+x264","amp;tr":["udp%3A%2F%2Ftracker.openbittorrent.com%3A80","udp%3A%2F%2Fopen.demonii.com%3A1337","udp%3A%2F%2Ftracker.coppersurfer.tk%3A6969","udp%3A%2F%2Fexodus.desync.com%3A6969"],"infoHash":"b2c8dde25a7f591b99382d6d2800e7a23378ed3e","infoHashBuffer":{"type":"Buffer","data":[178,200,221,226,90,127,89,27,153,56,45,109,40,0,231,162,51,120,237,62]},"announce":[],"urlList":[]}}